<mxfile host="65bd71144e">
    <diagram name="Page-1" id="nBW_Bbr4Stm58V_CJR-i">
        <mxGraphModel dx="790" dy="637" grid="1" gridSize="10" guides="1" tooltips="1" connect="1" arrows="1" fold="1" page="1" pageScale="3.5" pageWidth="850" pageHeight="1100" math="0" shadow="0">
            <root>
                <mxCell id="0"/>
                <mxCell id="1" parent="0"/>
                <mxCell id="Mqt_w0sXIPgbGG1-1pNo-1" value="&lt;font style=&quot;font-size: 20px;&quot;&gt;Color Battle&amp;nbsp; &amp;nbsp; &amp;nbsp; &amp;nbsp; &amp;lt;header&amp;gt;&lt;/font&gt;" style="rounded=0;whiteSpace=wrap;html=1;" parent="1" vertex="1">
                    <mxGeometry x="70" y="20" width="540" height="50" as="geometry"/>
                </mxCell>
                <mxCell id="Mqt_w0sXIPgbGG1-1pNo-3" value="s" style="swimlane;startSize=0;" parent="1" vertex="1">
                    <mxGeometry x="70" y="70" width="540" height="560" as="geometry"/>
                </mxCell>
                <mxCell id="Mqt_w0sXIPgbGG1-1pNo-5" value="Main" style="text;html=1;align=center;verticalAlign=middle;resizable=0;points=[];autosize=1;strokeColor=none;fillColor=none;" parent="Mqt_w0sXIPgbGG1-1pNo-3" vertex="1">
                    <mxGeometry x="20" y="65" width="50" height="30" as="geometry"/>
                </mxCell>
                <mxCell id="Mqt_w0sXIPgbGG1-1pNo-12" value="" style="rounded=0;whiteSpace=wrap;html=1;" parent="Mqt_w0sXIPgbGG1-1pNo-3" vertex="1">
                    <mxGeometry width="540" height="100" as="geometry"/>
                </mxCell>
                <mxCell id="Mqt_w0sXIPgbGG1-1pNo-14" value="Main" style="text;html=1;strokeColor=none;fillColor=none;align=center;verticalAlign=middle;whiteSpace=wrap;rounded=0;" parent="Mqt_w0sXIPgbGG1-1pNo-3" vertex="1">
                    <mxGeometry x="10" y="70" width="60" height="30" as="geometry"/>
                </mxCell>
                <mxCell id="Mqt_w0sXIPgbGG1-1pNo-17" value="" style="endArrow=block;html=1;rounded=0;entryX=0.074;entryY=0;entryDx=0;entryDy=0;entryPerimeter=0;dashed=1;endSize=12;endFill=1;" parent="Mqt_w0sXIPgbGG1-1pNo-3" target="Mqt_w0sXIPgbGG1-1pNo-12" edge="1">
                    <mxGeometry width="50" height="50" relative="1" as="geometry">
                        <mxPoint x="40" y="70" as="sourcePoint"/>
                        <mxPoint x="90" y="20" as="targetPoint"/>
                    </mxGeometry>
                </mxCell>
                <mxCell id="Mqt_w0sXIPgbGG1-1pNo-18" value="" style="endArrow=block;html=1;rounded=0;exitX=0.5;exitY=1;exitDx=0;exitDy=0;dashed=1;endFill=1;strokeWidth=1;endSize=12;" parent="Mqt_w0sXIPgbGG1-1pNo-3" source="Mqt_w0sXIPgbGG1-1pNo-14" edge="1">
                    <mxGeometry width="50" height="50" relative="1" as="geometry">
                        <mxPoint x="70" y="220" as="sourcePoint"/>
                        <mxPoint x="40" y="560" as="targetPoint"/>
                    </mxGeometry>
                </mxCell>
                <mxCell id="Mqt_w0sXIPgbGG1-1pNo-20" value="" style="ellipse;whiteSpace=wrap;html=1;opacity=40;strokeWidth=4;shadow=0;" parent="Mqt_w0sXIPgbGG1-1pNo-3" vertex="1">
                    <mxGeometry x="20" y="70" width="40" height="30" as="geometry"/>
                </mxCell>
                <mxCell id="Mqt_w0sXIPgbGG1-1pNo-21" value="&lt;" style="swimlane;startSize=0;" parent="Mqt_w0sXIPgbGG1-1pNo-3" vertex="1">
                    <mxGeometry x="2" y="1" width="540" height="560" as="geometry"/>
                </mxCell>
                <mxCell id="Mqt_w0sXIPgbGG1-1pNo-22" value="Main" style="text;html=1;align=center;verticalAlign=middle;resizable=0;points=[];autosize=1;strokeColor=none;fillColor=none;" parent="Mqt_w0sXIPgbGG1-1pNo-21" vertex="1">
                    <mxGeometry x="20" y="65" width="50" height="30" as="geometry"/>
                </mxCell>
                <mxCell id="Mqt_w0sXIPgbGG1-1pNo-24" value="" style="rounded=0;whiteSpace=wrap;html=1;" parent="Mqt_w0sXIPgbGG1-1pNo-21" vertex="1">
                    <mxGeometry width="540" height="100" as="geometry"/>
                </mxCell>
                <mxCell id="Mqt_w0sXIPgbGG1-1pNo-25" value="&lt;font style=&quot;font-size: 18px;&quot;&gt;&amp;lt;main&amp;gt;&lt;/font&gt;" style="text;html=1;strokeColor=none;fillColor=none;align=center;verticalAlign=middle;whiteSpace=wrap;rounded=0;" parent="Mqt_w0sXIPgbGG1-1pNo-21" vertex="1">
                    <mxGeometry x="10" y="70" width="60" height="30" as="geometry"/>
                </mxCell>
                <mxCell id="Mqt_w0sXIPgbGG1-1pNo-26" value="" style="endArrow=block;html=1;rounded=0;entryX=0.074;entryY=0;entryDx=0;entryDy=0;entryPerimeter=0;dashed=1;endSize=12;endFill=1;" parent="Mqt_w0sXIPgbGG1-1pNo-21" target="Mqt_w0sXIPgbGG1-1pNo-24" edge="1">
                    <mxGeometry width="50" height="50" relative="1" as="geometry">
                        <mxPoint x="40" y="70" as="sourcePoint"/>
                        <mxPoint x="90" y="20" as="targetPoint"/>
                    </mxGeometry>
                </mxCell>
                <mxCell id="Mqt_w0sXIPgbGG1-1pNo-27" value="" style="endArrow=block;html=1;rounded=0;exitX=0.5;exitY=1;exitDx=0;exitDy=0;dashed=1;endFill=1;strokeWidth=1;endSize=12;" parent="Mqt_w0sXIPgbGG1-1pNo-21" source="Mqt_w0sXIPgbGG1-1pNo-25" edge="1">
                    <mxGeometry width="50" height="50" relative="1" as="geometry">
                        <mxPoint x="70" y="220" as="sourcePoint"/>
                        <mxPoint x="40" y="560" as="targetPoint"/>
                    </mxGeometry>
                </mxCell>
                <mxCell id="Mqt_w0sXIPgbGG1-1pNo-9" value="&lt;font style=&quot;font-size: 16px;&quot;&gt;&lt;i&gt;&amp;lt;asideLeft&amp;gt;&lt;/i&gt;&lt;/font&gt;" style="text;html=1;strokeColor=none;fillColor=none;align=center;verticalAlign=middle;whiteSpace=wrap;rounded=0;" parent="Mqt_w0sXIPgbGG1-1pNo-21" vertex="1">
                    <mxGeometry x="117" y="119" width="60" height="30" as="geometry"/>
                </mxCell>
                <mxCell id="Mqt_w0sXIPgbGG1-1pNo-50" value="Damage Points!" style="text;html=1;strokeColor=none;fillColor=none;align=center;verticalAlign=middle;whiteSpace=wrap;rounded=0;fontSize=20;horizontal=1;spacing=17;" parent="Mqt_w0sXIPgbGG1-1pNo-21" vertex="1">
                    <mxGeometry x="227" y="40" width="60" height="30" as="geometry"/>
                </mxCell>
                <mxCell id="Mqt_w0sXIPgbGG1-1pNo-52" value="&lt;font style=&quot;font-size: 18px;&quot;&gt;Attack!&lt;/font&gt;" style="rounded=1;whiteSpace=wrap;html=1;" parent="Mqt_w0sXIPgbGG1-1pNo-21" vertex="1">
                    <mxGeometry x="87" y="309" width="120" height="60" as="geometry"/>
                </mxCell>
                <mxCell id="Mqt_w0sXIPgbGG1-1pNo-60" value="" style="swimlane;startSize=0;" parent="Mqt_w0sXIPgbGG1-1pNo-21" vertex="1">
                    <mxGeometry width="540" height="560" as="geometry"/>
                </mxCell>
                <mxCell id="Mqt_w0sXIPgbGG1-1pNo-61" value="Main" style="text;html=1;align=center;verticalAlign=middle;resizable=0;points=[];autosize=1;strokeColor=none;fillColor=none;" parent="Mqt_w0sXIPgbGG1-1pNo-60" vertex="1">
                    <mxGeometry x="20" y="65" width="50" height="30" as="geometry"/>
                </mxCell>
                <mxCell id="Mqt_w0sXIPgbGG1-1pNo-62" value="" style="rounded=0;whiteSpace=wrap;html=1;" parent="Mqt_w0sXIPgbGG1-1pNo-60" vertex="1">
                    <mxGeometry width="540" height="100" as="geometry"/>
                </mxCell>
                <mxCell id="Mqt_w0sXIPgbGG1-1pNo-63" value="&lt;font style=&quot;font-size: 18px;&quot;&gt;&amp;lt;main&amp;gt;&lt;/font&gt;" style="text;html=1;strokeColor=none;fillColor=none;align=center;verticalAlign=middle;whiteSpace=wrap;rounded=0;" parent="Mqt_w0sXIPgbGG1-1pNo-60" vertex="1">
                    <mxGeometry x="10" y="70" width="60" height="30" as="geometry"/>
                </mxCell>
                <mxCell id="Mqt_w0sXIPgbGG1-1pNo-64" value="" style="endArrow=block;html=1;rounded=0;entryX=0.074;entryY=0;entryDx=0;entryDy=0;entryPerimeter=0;dashed=1;endSize=12;endFill=1;" parent="Mqt_w0sXIPgbGG1-1pNo-60" target="Mqt_w0sXIPgbGG1-1pNo-62" edge="1">
                    <mxGeometry width="50" height="50" relative="1" as="geometry">
                        <mxPoint x="40" y="70" as="sourcePoint"/>
                        <mxPoint x="90" y="20" as="targetPoint"/>
                    </mxGeometry>
                </mxCell>
                <mxCell id="Mqt_w0sXIPgbGG1-1pNo-65" value="" style="endArrow=block;html=1;rounded=0;exitX=0.5;exitY=1;exitDx=0;exitDy=0;dashed=1;endFill=1;strokeWidth=1;endSize=12;" parent="Mqt_w0sXIPgbGG1-1pNo-60" source="Mqt_w0sXIPgbGG1-1pNo-63" edge="1">
                    <mxGeometry width="50" height="50" relative="1" as="geometry">
                        <mxPoint x="70" y="220" as="sourcePoint"/>
                        <mxPoint x="40" y="560" as="targetPoint"/>
                    </mxGeometry>
                </mxCell>
                <mxCell id="Mqt_w0sXIPgbGG1-1pNo-70" value="Damage Points!" style="text;html=1;strokeColor=none;fillColor=none;align=center;verticalAlign=middle;whiteSpace=wrap;rounded=0;fontSize=20;horizontal=1;spacing=17;" parent="Mqt_w0sXIPgbGG1-1pNo-60" vertex="1">
                    <mxGeometry x="227" y="40" width="60" height="30" as="geometry"/>
                </mxCell>
                <mxCell id="Mqt_w0sXIPgbGG1-1pNo-71" value="&lt;font style=&quot;font-size: 18px;&quot;&gt;Attack!&lt;/font&gt;" style="rounded=1;whiteSpace=wrap;html=1;" parent="Mqt_w0sXIPgbGG1-1pNo-60" vertex="1">
                    <mxGeometry x="317" y="299" width="120" height="60" as="geometry"/>
                </mxCell>
                <mxCell id="Mqt_w0sXIPgbGG1-1pNo-53" value="s" style="swimlane;startSize=0;" parent="Mqt_w0sXIPgbGG1-1pNo-60" vertex="1">
                    <mxGeometry width="540" height="560" as="geometry"/>
                </mxCell>
                <mxCell id="Mqt_w0sXIPgbGG1-1pNo-54" value="Main" style="text;html=1;align=center;verticalAlign=middle;resizable=0;points=[];autosize=1;strokeColor=none;fillColor=none;" parent="Mqt_w0sXIPgbGG1-1pNo-53" vertex="1">
                    <mxGeometry x="20" y="65" width="50" height="30" as="geometry"/>
                </mxCell>
                <mxCell id="Mqt_w0sXIPgbGG1-1pNo-55" value="" style="rounded=0;whiteSpace=wrap;html=1;" parent="Mqt_w0sXIPgbGG1-1pNo-53" vertex="1">
                    <mxGeometry width="540" height="100" as="geometry"/>
                </mxCell>
                <mxCell id="Mqt_w0sXIPgbGG1-1pNo-56" value="&amp;lt;Main&amp;gt;" style="text;html=1;strokeColor=none;fillColor=none;align=center;verticalAlign=middle;whiteSpace=wrap;rounded=0;fontSize=16;" parent="Mqt_w0sXIPgbGG1-1pNo-53" vertex="1">
                    <mxGeometry x="10" y="50.25" width="60" height="30" as="geometry"/>
                </mxCell>
                <mxCell id="Mqt_w0sXIPgbGG1-1pNo-57" value="" style="endArrow=block;html=1;rounded=0;entryX=0.074;entryY=0;entryDx=0;entryDy=0;entryPerimeter=0;dashed=1;endSize=12;endFill=1;" parent="Mqt_w0sXIPgbGG1-1pNo-53" target="Mqt_w0sXIPgbGG1-1pNo-55" edge="1" source="Mqt_w0sXIPgbGG1-1pNo-59">
                    <mxGeometry width="50" height="50" relative="1" as="geometry">
                        <mxPoint x="40" y="70" as="sourcePoint"/>
                        <mxPoint x="90" y="20" as="targetPoint"/>
                    </mxGeometry>
                </mxCell>
                <mxCell id="Mqt_w0sXIPgbGG1-1pNo-58" value="" style="endArrow=block;html=1;rounded=0;exitX=0.5;exitY=1;exitDx=0;exitDy=0;dashed=1;endFill=1;strokeWidth=1;endSize=12;" parent="Mqt_w0sXIPgbGG1-1pNo-53" source="Mqt_w0sXIPgbGG1-1pNo-56" edge="1">
                    <mxGeometry width="50" height="50" relative="1" as="geometry">
                        <mxPoint x="70" y="220" as="sourcePoint"/>
                        <mxPoint x="40" y="560" as="targetPoint"/>
                    </mxGeometry>
                </mxCell>
                <mxCell id="Mqt_w0sXIPgbGG1-1pNo-59" value="" style="ellipse;whiteSpace=wrap;html=1;opacity=40;strokeWidth=2;shadow=0;dashed=1;dashPattern=1 1;" parent="Mqt_w0sXIPgbGG1-1pNo-53" vertex="1">
                    <mxGeometry x="10" y="39" width="60" height="52.5" as="geometry"/>
                </mxCell>
                <mxCell id="Mqt_w0sXIPgbGG1-1pNo-29" value="Player-One&lt;br style=&quot;font-size: 20px;&quot;&gt;&lt;br style=&quot;font-size: 20px;&quot;&gt;HealthPoints:&amp;nbsp; &amp;nbsp;##" style="text;html=1;strokeColor=none;fillColor=none;align=center;verticalAlign=middle;whiteSpace=wrap;rounded=0;fontSize=20;" parent="Mqt_w0sXIPgbGG1-1pNo-53" vertex="1">
                    <mxGeometry x="47" y="199" width="190" height="30" as="geometry"/>
                </mxCell>
                <mxCell id="Mqt_w0sXIPgbGG1-1pNo-7" value="" style="swimlane;startSize=0;" parent="1" vertex="1">
                    <mxGeometry x="329" y="170" width="280" height="460" as="geometry"/>
                </mxCell>
                <mxCell id="Mqt_w0sXIPgbGG1-1pNo-23" value="&lt;font style=&quot;font-size: 16px;&quot;&gt;&amp;lt;asideRight&amp;gt;&lt;/font&gt;" style="text;html=1;strokeColor=none;fillColor=none;align=center;verticalAlign=middle;whiteSpace=wrap;rounded=0;fontSize=16;" parent="Mqt_w0sXIPgbGG1-1pNo-7" vertex="1">
                    <mxGeometry x="80" y="20" width="120" height="30" as="geometry"/>
                </mxCell>
                <mxCell id="Mqt_w0sXIPgbGG1-1pNo-48" value="Player-Two&lt;br style=&quot;font-size: 20px;&quot;&gt;&lt;br style=&quot;font-size: 20px;&quot;&gt;HealthPointsd:&amp;nbsp; ##" style="text;html=1;strokeColor=none;fillColor=none;align=center;verticalAlign=middle;whiteSpace=wrap;rounded=0;fontSize=20;" parent="Mqt_w0sXIPgbGG1-1pNo-7" vertex="1">
                    <mxGeometry x="45" y="110" width="190" height="30" as="geometry"/>
                </mxCell>
            </root>
        </mxGraphModel>
    </diagram>
</mxfile>